<svg width="32" height="32" viewBox="0 0 32 32" fill="none" xmlns="http://www.w3.org/2000/svg">
  <!-- Nuage -->
  <path d="M8 20C6.89 20 6 19.11 6 18C6 16.89 6.89 16 8 16C8.55 16 9.05 16.22 9.41 16.59C10.1 15.64 11.2 15 12.5 15C14.43 15 16 16.57 16 18.5V19H22C23.66 19 25 20.34 25 22C25 23.66 23.66 25 22 25H8C6.34 25 5 23.66 5 22C5 20.89 5.89 20 8 20Z" fill="#4A90E2"/>
  <!-- Soleil -->
  <circle cx="20" cy="12" r="4" fill="#FFD700"/>
  <path d="M20 4V6M20 18V20M28 12H26M14 12H12M25.66 6.34L24.24 7.76M15.76 16.24L14.34 17.66M25.66 17.66L24.24 16.24M15.76 7.76L14.34 6.34" stroke="#FFD700" stroke-width="1.5" stroke-linecap="round"/>
  <!-- Gouttes de pluie -->
  <circle cx="12" cy="8" r="1" fill="#4A90E2"/>
  <circle cx="15" cy="10" r="1" fill="#4A90E2"/>
  <circle cx="18" cy="6" r="1" fill="#4A90E2"/>
</svg>
